<?xml version="1.0" encoding="UTF-8"?>
<svg width="24px" height="24px" viewBox="0 0 24 24" version="1.1" xmlns="http://www.w3.org/2000/svg" xmlns:xlink="http://www.w3.org/1999/xlink">
    <!-- Generator: Sketch 63 (92445) - https://sketch.com -->
    <title>Combined Shape@1x</title>
    <desc>Created with Sketch.</desc>
    <g id="new" stroke="none" stroke-width="1" fill="none" fill-rule="evenodd">
        <g id="icons-" transform="translate(-73.000000, -399.000000)" fill="#2C75E5">
            <path d="M84.9998284,399 C91.1947495,399 96.2920384,403.694406 96.9311942,409.719801 C96.9159231,409.712594 96.8992793,409.70779 96.8810913,409.70779 L96.8810913,409.70779 L78.5116678,409.70779 C78.4461222,409.70779 78.3929307,409.760981 78.3929307,409.826699 L78.3929307,409.826699 L78.3929307,411.546843 L79.8611874,411.546843 C81.4571036,411.546843 82.7553191,412.766987 82.7553191,414.266644 C82.7553191,414.285175 82.7530885,414.303191 82.7525738,414.321723 L82.7525738,414.321723 L85.342313,414.321723 L85.342313,422.991249 C85.2282086,422.994509 85.1147907,423 84.9998284,423 C78.372512,423 73,417.627316 73,410.999828 C73,404.372512 78.372512,399 84.9998284,399 Z M96.976836,410.28442 C96.9907344,410.52138 97,410.759712 97,410.999931 C97,416.205148 93.6851407,420.634626 89.0519904,422.296946 L89.0519904,422.296946 L89.0519904,414.321654 L92.5048044,414.321654 C94.8328758,414.321654 96.7474262,412.551922 96.976836,410.28442 Z M79.8611874,412.919526 L78.3929307,412.919526 L78.3929307,414.202986 C78.3929307,414.268531 78.4461222,414.321723 78.5116678,414.321723 L78.5116678,414.321723 L81.3387097,414.321723 C81.3642759,414.313315 81.3826356,414.292038 81.3826356,414.266644 C81.3826356,413.522821 80.7014413,412.919526 79.8611874,412.919526 L79.8611874,412.919526 Z" id="Combined-Shape"></path>
        </g>
    </g>
</svg>